<?xml version="1.0" encoding="UTF-8"?>
<svg id="Warstwa_1" xmlns="http://www.w3.org/2000/svg" version="1.1" viewBox="0 0 160 160">
  <path d="M80,0C35.8,0,0,35.8,0,80s35.8,80,80,80,80-35.8,80-80S124.2,0,80,0ZM127.6,129.1c0,3.2-2.6,5.8-5.8,5.8h-11l-2.4-2.4h-16.3l-2.4,2.4h-24.8l-32.4-32.4V25.1h83.7v30l11.4,11.4v62.5Z"/>
  <polygon points="37.8 100.2 55.7 118.1 110.8 118.1 110.8 94.4 95.3 78.9 110.8 78.9 110.8 73.6 89.9 52.7 64.7 52.7 64.7 57.9 80.4 73.6 64.7 73.6 64.7 78.8 87.2 101.3 69.3 101.3 59.3 91.3 59.3 47.3 110.8 47.3 110.8 30.5 37.8 30.5 37.8 100.2"/>
</svg>