<svg width="1024" height="1024" viewBox="0 0 1024 1024" fill="none" xmlns="http://www.w3.org/2000/svg">
<defs>
<linearGradient id="paint0_linear_2_189" x1="513.801" y1="65" x2="513.801" y2="407.5" gradientUnits="userSpaceOnUse">
<stop stop-color="#64ffff"/>
<stop offset="1" stop-color="#96aaff"/>
</linearGradient>
<linearGradient id="paint1_linear_2_189" x1="475.503" y1="500.385" x2="476" y2="1094" gradientUnits="userSpaceOnUse">
<stop stop-color="#beffd2"/>
<stop offset="0.5" stop-color="#96aaff"/>
<stop offset="1" stop-color="#141414"/>
</linearGradient>
<linearGradient id="paint2_scope" x1="122" y1="70" x2="900" y2="783" gradientUnits="userSpaceOnUse">
<stop stop-color="#64ffff"/>
<stop offset="0.5" stop-color="#96aaff"/>
<stop offset="1" stop-color="#beffd2"/>
</linearGradient>
</defs>
<path d="M472.197 387.5C483.347 392.534 489.176 397.294 499.197 407.5V376H528.197V407.5C553.205 391.036 571.197 381.5 587.697 365C604.197 348.5 612.6 323.829 610.197 289C605.148 257.339 596.494 240.966 573.697 213.5C577.757 238.717 576.45 250.083 567.197 265C558.368 252.034 556.686 242.962 554.197 226.5C550.717 200.329 548.662 186.105 544.697 162C535.602 115.632 523.802 91.4892 502.197 65C503.867 118.794 505.697 140 491.197 167C476.697 194 464.429 206.925 451.197 239.5C446.725 256.881 445.904 266.512 447.197 283.5C440.545 277.323 438.686 269.469 437.697 250C412.697 276 415.647 324.5 419.697 333.5C428.197 356.5 445.29 374.668 472.197 387.5Z" fill="url(#paint0_linear_2_189)"/>
<circle cx="513.5" cy="455.5" r="22.5" fill="#64ffff"/>
<rect x="300" y="441" width="128" height="30" fill="#64ffff"/>
<rect x="599" y="442" width="128" height="30" fill="#96aaff"/>
<rect x="790" y="441" width="128" height="30" fill="#beffd2"/>
<rect x="108" y="442" width="129" height="30" fill="#64ffff"/>
<path d="M899.923 496C887.528 616.285 820.537 720.376 724.145 783.076L706.897 756.117C794.407 699.12 855.487 604.949 867.737 496H899.923ZM155.266 496C165.236 584.68 207.556 663.57 270.149 720.591L248.17 743.854C179.381 680.999 133.16 593.859 123.076 496H155.266ZM452.962 101.756C295.242 127.659 172.181 256.496 155.044 417H122.875C140.178 240.191 275.4 97.9631 448.864 69.9961L452.962 101.756ZM571.502 69.582C746.23 96.5272 882.734 239.297 900.125 417H867.955C850.672 255.133 725.659 125.475 566.011 101.12L571.502 69.582Z" fill="url(#paint2_scope)"/>
<path d="M486.747 509.563C500.758 501.259 511.641 498.808 522.394 501.331C533.104 503.845 543.6 511.279 556.881 522.504L557.787 523.27L542.481 524.743C544.991 528.762 546.675 532.032 547.805 535.38C548.999 538.92 549.566 542.523 549.854 547.157L549.892 547.765L549.288 547.684L534.375 545.685C526 562.302 524.375 573.452 522.715 594.045L522.71 594.101L522.693 594.156C518.536 607.332 514.377 614.209 505.706 624.358C517.946 618.148 525.984 612.699 531.701 606.59C537.75 600.127 541.232 592.891 544.316 583.141L544.394 582.898L544.636 582.817C550.939 580.726 554.998 580.207 562.82 580.508C564.141 577.052 564.858 574.332 565.149 571.611C565.45 568.8 565.301 565.964 564.872 562.281L564.819 561.828L565.266 561.734C568.352 561.083 570.865 560.681 573.678 560.873C576.364 561.057 579.294 561.779 583.246 563.299C584.882 555.083 585.084 549.998 583.859 540.365L583.77 539.658L584.465 539.815C597.47 542.723 608.871 549.468 617.159 557.561C625.438 565.644 630.661 575.123 631.214 583.526C631.762 591.853 630.209 598.414 626.855 604.676C623.513 610.917 618.387 616.849 611.829 623.928L611.828 623.929V623.93C611.828 623.931 611.826 623.931 611.824 623.933C611.821 623.936 611.816 623.942 611.81 623.948C611.797 623.962 611.778 623.983 611.753 624.011C611.702 624.067 611.625 624.152 611.525 624.266C611.325 624.493 611.03 624.835 610.654 625.288C609.902 626.196 608.827 627.553 607.536 629.344C604.953 632.926 601.51 638.243 598.081 645.171C591.223 659.026 584.419 679.322 584.646 705.076C584.874 730.818 592.996 751.551 601.853 773.747C610.707 795.936 620.285 819.565 623.312 850.998C626.334 882.39 624.034 900.47 617.75 914.834C611.482 929.161 601.246 939.77 588.594 956.153L588.021 956.894L587.725 956.006C577.5 925.478 566.229 903.858 551.077 891.093C536.231 878.586 517.589 874.525 492.343 879.057C503.864 885.328 512.903 890.496 520.568 897.401C528.27 904.338 534.57 913.008 540.657 926.26L541.245 927.557L541.26 927.59L541.27 927.624C550.07 958.56 551.754 982.412 545.411 1005.75C539.073 1029.07 524.733 1051.81 501.61 1080.57L501.483 1080.73L501.282 1080.75C328.52 1101.82 251.056 1099.88 169.626 1056.34L168.908 1055.96L169.575 1055.49C230.611 1012.86 288.241 970.857 329.452 914.763C370.447 858.962 395.211 789.193 390.83 690.951L378.819 707.601L378.662 707.819L378.395 707.808C362.025 707.187 350.648 705.057 341.309 700.577C331.964 696.095 324.708 689.282 316.539 679.39L316.435 679.264L316.425 679.1C316.414 678.903 316.505 678.753 316.553 678.684C316.61 678.601 316.683 678.527 316.753 678.462C316.894 678.331 317.089 678.184 317.319 678.028C317.785 677.711 318.461 677.307 319.309 676.828C321.008 675.87 323.446 674.587 326.387 673.06C332.274 670.002 340.201 665.953 348.371 661.526C356.542 657.097 364.944 652.295 371.774 647.733C375.19 645.451 378.204 643.235 380.598 641.16C382.999 639.08 384.741 637.169 385.65 635.504C387.499 632.121 388.093 628.013 388.24 623.333C388.314 620.997 388.275 618.534 388.232 615.96C388.189 613.391 388.142 610.713 388.197 607.964C388.42 596.953 390.304 584.742 400.825 573.173C406.076 567.399 412.621 562.771 419.826 558.524C427.022 554.281 434.926 550.39 442.86 546.126C458.758 537.582 474.914 527.473 486.585 509.719L486.647 509.621L486.747 509.563ZM621.104 756.434C674.094 803.313 710.264 842.429 735.223 886.937C760.184 931.45 773.913 981.322 782.085 1049.69L782.145 1050.18L781.646 1050.24L594.349 1071.79L593.038 1071.94L593.919 1070.96C637.701 1022.18 660.433 980.478 664.182 932.626C667.932 884.749 652.688 830.633 620.315 757.01L621.104 756.434ZM249.688 963.731L217.744 991.922L217.556 992.088L217.311 992.036C191.09 986.504 182.413 983.426 170.146 977.949L168.861 977.376L170.22 977.01C200.016 968.993 217.159 965.461 249.318 962.858L250.816 962.737L249.688 963.731ZM305.7 896.856C302.085 907.496 294.931 917.057 274.995 939.156L274.782 939.392L274.479 939.3C259.337 934.701 248.898 930.768 241.047 926.209C233.179 921.641 227.92 916.449 223.123 909.361L222.773 908.844L223.355 908.615C248.716 898.666 267.349 896.469 305.223 896.194L305.927 896.189L305.7 896.856ZM351.424 818.576C348.741 829.107 346.231 837.37 342.202 845.695C338.173 854.02 332.634 862.389 323.912 873.147L323.708 873.398L323.395 873.314C308.717 869.38 298.15 865.66 289.038 860.899C279.922 856.135 272.283 850.342 263.449 842.283L262.893 841.776L263.576 841.46C290.531 829.011 308.351 823.259 350.877 817.957L351.604 817.866L351.424 818.576ZM377.088 730.081C377.406 752.059 374.326 766.238 362.684 794.95L362.535 795.319L362.143 795.257C345.789 792.682 334.044 789.665 323.952 785.053C313.855 780.438 305.439 774.238 295.723 765.335L295.153 764.814L295.86 764.508L376.389 729.629L377.077 729.331L377.088 730.081ZM500.244 574.009C462.776 581.876 449.95 589.806 448.594 616.656C459.81 615.338 467.708 613.384 486.294 606.495C499.069 594.818 502.363 587.737 500.244 574.009Z" fill="url(#paint1_linear_2_189)"/>
</svg>
