<?xml version="1.0" encoding="UTF-8"?>
<svg id="Warstwa_1" xmlns="http://www.w3.org/2000/svg" version="1.1" viewBox="0 0 320 320">
  <!-- Generator: Adobe Illustrator 29.4.0, SVG Export Plug-In . SVG Version: 2.1.0 Build 152)  -->
  <path d="M160,0C71.6,0,0,71.6,0,160s71.6,160,160,160,160-71.6,160-160S248.4,0,160,0ZM255.1,258.2c0,6.4-5.2,11.6-11.5,11.6h-22.1l-4.8-4.8h-32.5l-4.8,4.8h-49.6l-64.9-64.9V50.2h167.4v60.1l22.9,22.9v125Z"/>
  <polygon points="75.6 200.4 111.3 236.1 221.5 236.1 221.5 188.9 190.5 157.9 221.5 157.9 221.5 147.1 179.8 105.4 129.4 105.4 129.4 115.7 160.7 147.1 129.4 147.1 129.4 157.5 174.4 202.5 138.5 202.5 118.6 182.6 118.6 94.6 221.5 94.6 221.5 61 75.6 61 75.6 200.4"/>
</svg>